<?xml version="1.0" encoding="utf-8"?>
<!-- Generator: Adobe Illustrator 26.0.1, SVG Export Plug-In . SVG Version: 6.00 Build 0)  -->
<svg version="1.1" id="Lager_1" xmlns="http://www.w3.org/2000/svg" xmlns:xlink="http://www.w3.org/1999/xlink" x="0px" y="0px"
	 viewBox="0 0 436 435.8" style="enable-background:new 0 0 436 435.8;" xml:space="preserve">
<style type="text/css">
	.st0{fill:#009640;stroke:#000000;stroke-miterlimit:10;}
	.st1{fill:#FCEA10;stroke:#000000;stroke-miterlimit:10;}
	.st2{fill:#009FE3;stroke:#000000;stroke-miterlimit:10;}
	.st3{fill:#E30613;stroke:#000000;stroke-miterlimit:10;}
</style>
<path id="btn-4" class="st0" d="M436,223.4c-2.8,116.1-96.5,209.8-212.6,212.6V324.6c54.7-2.7,98.6-46.6,101.3-101.3H436z"/>
<path id="btn-3" class="st1" d="M436,212.6H324.7c-2.7-54.8-46.6-98.7-101.4-101.4V0C339.5,2.8,433.1,96.4,436,212.6z"/>
<path id="btn-2" class="st2" d="M212.6,324.6v111.3C96.5,433.1,2.8,339.5,0,223.4h111.2C114,278.1,157.9,321.9,212.6,324.6z"/>
<path id="btn-1" class="st3" d="M212.6,0v111.2c-54.8,2.7-98.7,46.7-101.4,101.4H0C2.8,96.4,96.4,2.8,212.6,0z"/>
</svg>
